<?xml version="1.0" encoding="utf-8"?>
<!-- Generator: Adobe Illustrator 18.1.1, SVG Export Plug-In . SVG Version: 6.00 Build 0)  -->
<svg version="1.1" id="Layer_1" xmlns="http://www.w3.org/2000/svg" xmlns:xlink="http://www.w3.org/1999/xlink" x="0px" y="0px"
	 viewBox="0 0 150 100" enable-background="new 0 0 150 100" xml:space="preserve">
<path fill="#AA6565" d="M128.9,89.1L14.2,22.7c-3.3-1.9-4.4-6.1-2.5-9.4l0,0c1.9-3.3,6.1-4.4,9.4-2.5l114.6,66.4
	c3.3,1.9,4.4,6.1,2.5,9.4v0C136.4,89.9,132.2,91,128.9,89.1z"/>
<path fill="#AA6565" d="M135.4,22L21.6,89.8c-3.2,1.9-7.5,0.9-9.4-2.4l0,0c-1.9-3.2-0.9-7.5,2.4-9.4l113.8-67.8
	c3.2-1.9,7.5-0.9,9.4,2.4v0C139.7,15.9,138.7,20.1,135.4,22z"/>
</svg>
