<?xml version="1.0" encoding="utf-8"?>
<!-- Generator: Adobe Illustrator 18.1.1, SVG Export Plug-In . SVG Version: 6.00 Build 0)  -->
<svg version="1.1" xmlns="http://www.w3.org/2000/svg" xmlns:xlink="http://www.w3.org/1999/xlink" x="0px" y="0px"
	 viewBox="0 0 128 128" enable-background="new 0 0 128 128" xml:space="preserve">
<g id="Layer_2">
	<circle fill="none" stroke="#FFFFFF" stroke-width="8" stroke-miterlimit="10" cx="64" cy="64" r="59.8"/>
</g>
<g id="Layer_3">
	<path fill="#FFFFFF" d="M65,25.2C43,25.2,25.2,43,25.2,65c0,18.5,12.7,34.1,29.8,38.5V95c0,0-7.1,1.5-9.1,0s-4.5-7.5-5.6-8.6
		s-4.5-3-4.5-3.9c0,0,1.4-1,2.2-1s4.1,1.9,5.3,3.5s2.4,3.9,4.8,4.6s5.5,0.8,6.4,0.3s2.8-4.1,3-4.9s0-1.4,0-1.4s-9.3-0.5-13-6
		S39.3,65.4,40.3,61s3.5-7.4,3.5-7.4l-0.3-9.1c0,0,0.4-2,1.4-2.3s6.5,1.5,9.6,4c3-0.3,11.9-2,20.6,0.1c3.5-2.3,5.8-3.5,10-4.1
		c1.1,0.8,1,2.8,1,2.8l0,7.6c0,0,3.4,5,3.5,9.3s0,10-2.1,13.2c-2.1,3.3-5.8,6.5-12.3,7.8c-1.6,0.3-2.8,0.4-2.8,0.4l0.3,1.4
		c0,0,1.8,1.8,1.9,3.8l-0.1,15.3c17.4-4.3,30.3-19.9,30.3-38.6C104.8,43,87,25.2,65,25.2z"/>
</g>
</svg>
