<?xml version="1.0" encoding="utf-8"?>
<!-- Generator: Adobe Illustrator 18.1.1, SVG Export Plug-In . SVG Version: 6.00 Build 0)  -->
<svg version="1.1" xmlns="http://www.w3.org/2000/svg" xmlns:xlink="http://www.w3.org/1999/xlink" x="0px" y="0px"
	 viewBox="0 0 128 128" enable-background="new 0 0 128 128" xml:space="preserve">
<g id="Layer_4">
	<g id="Layer_2">
		<circle fill="none" stroke="#FFFFFF" stroke-width="8" stroke-miterlimit="10" cx="64" cy="64" r="59.9"/>
		<path fill="none" stroke="#FFFFFF" stroke-width="5" stroke-miterlimit="10" d="M84.7,90.6H43.3c-3.3,0-5.9-2.7-5.9-7.2V42
			c0-2,2.7-4.6,5.9-4.6h41.4c3.3,0,5.9,2.7,5.9,5.9v41.4C90.6,88,88,90.6,84.7,90.6z"/>
		<circle fill="none" stroke="#FFFFFF" stroke-width="5" stroke-miterlimit="10" cx="64" cy="64" r="14.7"/>
		<path fill="#FFFFFF" d="M91,44.9"/>
		<path fill="none" stroke="#FFFFFF" stroke-width="2" stroke-miterlimit="10" d="M86.2,50.3h-6.8c-1.1,0-2-0.9-2-2v-6.8
			c0-1.1,0.9-2,2-2h6.8c1.1,0,2,0.9,2,2v6.8C88.2,49.4,87.3,50.3,86.2,50.3z"/>
		<path fill="#FFFFFF" d="M37,58h14c0,0,3.8-9,13-8.7S78.2,58,78.2,58H91l-0.4-10.8L88,49.3c0,0,0,1.3-5.8,1c-5.8-0.3-4.5-1-4.5-1
			l-0.2-8.5l2-3.8H41c0,0-3.6,0.8-3.6,8.3S37,58,37,58z"/>
	</g>
</g>
<g id="Layer_3">
	<path fill="none" d="M86.2,49.9h-6c-1.1,0-2-0.9-2-2v-6c0-1.1,0.9-2,2-2h6c1.1,0,2,0.9,2,2v6C88.2,49,87.3,49.9,86.2,49.9z"/>
</g>
</svg>
