<?xml version="1.0" encoding="utf-8"?>
<!-- Generator: Adobe Illustrator 18.1.1, SVG Export Plug-In . SVG Version: 6.00 Build 0)  -->
<svg version="1.1" id="Layer_1" xmlns="http://www.w3.org/2000/svg" xmlns:xlink="http://www.w3.org/1999/xlink" x="0px" y="0px"
	 viewBox="0 0 150 100" enable-background="new 0 0 150 100" xml:space="preserve">
<path fill="#FFFFFF" d="M142.2,56.4H9.7c-3.8,0-6.9-3.1-6.9-6.9v0c0-3.8,3.1-6.9,6.9-6.9h132.5c3.8,0,6.9,3.1,6.9,6.9v0
	C149,53.3,145.9,56.4,142.2,56.4z"/>
<path fill="#FFFFFF" d="M141.2,29.5H8.8c-3.8,0-6.9-3.1-6.9-6.9v0c0-3.8,3.1-6.9,6.9-6.9h132.5c3.8,0,6.9,3.1,6.9,6.9v0
	C148.1,26.4,145,29.5,141.2,29.5z"/>
<polygon fill="#FFFFFF" points="5.5,70 76.7,91 147.9,70 "/>
</svg>
