<?xml version="1.0" encoding="utf-8"?>
<!-- Generator: Adobe Illustrator 18.1.1, SVG Export Plug-In . SVG Version: 6.00 Build 0)  -->
<svg version="1.1" id="Layer_2" xmlns="http://www.w3.org/2000/svg" xmlns:xlink="http://www.w3.org/1999/xlink" x="0px" y="0px"
	 viewBox="0 0 128 128" enable-background="new 0 0 128 128" xml:space="preserve">
<circle fill="none" stroke="#FFFFFF" stroke-width="8" stroke-miterlimit="10" cx="64" cy="64" r="59.9"/>
<path fill="#FFFFFF" d="M85.8,43.9c-1.5,0.3-3.3,1.7-5.1,3.6c-2.3,2.3-5,8.8-5.6,10.8s0.4,5.9,1.1,6.8s4.8,5.5,5.8,6.9s1,4.1,0,5.6
	s-4,1.6-5.6,1S74,76,73.4,73.1s-1.6-4.1-2.1-4.3S70,69.3,68.8,71s-2.8,7.1-2.6,8.5s0.6,4.8,0.3,6.3S62,88.8,60,88s-3.5-2.6-3.6-3.8
	s0.8-3.3,2.8-6c2.1-2.8,3.5-11.3,3.5-11.3s-3.1,2-5.6,4.3s-5.8,4.6-7.6,4.3s-2.1-0.9-2.8-3.1s2.5-5,4.7-6.3s6.7-3.8,8.7-6.3
	c-1.7,0-5,1.1-6.3,1.7c-1.3,0.6-4.3,1.3-6.1,0C46,60.2,46,58,46.5,57c0.4-1.1,3-2.6,4.1-2.8c1.1-0.2,7.6,1.1,10.2,0
	c2.6-1.1,6.7-5,8.9-8.4c1.9-3,2.4-8.1,2.6-9.6l-8.1-4.7l-30,17.3L34,83.3l29.9,17.2l30-17.3L94,48.7L85.8,43.9z"/>
</svg>
